<svg xmlns="http://www.w3.org/2000/svg" viewBox="0 0 512 109"><g fill="#edead6"><path d="M85.1,102.4,75,78.7H91.6l10.1,23.7Zm-20-30.2H36L50.6,38.4Zm-11-42,8.4-19.4L88.8,72.2H72.2Zm54.7,72.2L65.9,2.4A3.9,3.9,0,0,0,62.5.2a3.9,3.9,0,0,0-3.6,2.2L16,102.4H3.2A3.2,3.2,0,0,0,0,105.6a3.3,3.3,0,0,0,3.2,3.2H33.4a3.3,3.3,0,0,0,3.2-3.2,3.2,3.2,0,0,0-3.2-3.2H23.1L33.2,78.7H67.9l10.2,23.7h-10a3.2,3.2,0,0,0-3.3,3.2,3.3,3.3,0,0,0,3.3,3.2h54.1a3.3,3.3,0,0,0,3.2-3.2,3.2,3.2,0,0,0-3.2-3.2Z"/><path d="M141 74c-6.2 0-11.6-3.1-12-10h-12.8c.1 14.1 11.7 20.3 24.3 20.3s23.8-5 23.8-18.5c0-21.9-33.1-14.5-33.1-24.7 0-4.3 4.9-6 8.5-6 6.3 0 9.8 1.9 10.4 7.9h12.3c-.4-13.1-11.1-18.3-22.9-18.3s-21.4 5.6-21.4 17.4c0 21.2 33.1 14 33.1 25.1 0 5.2-6.2 6.8-10.2 6.8zm77.7-2.5h-20.6V59.9h19.7V48.4h-19.7V37h20.6V25.5h-33.3v57.4h33.3V71.5zm48-34.5h16.4V25.5h-45.4V37H254v45.9h12.7V37zm35.4-11.5h12.7v57.4h-12.7zm88.9 0h-13.6l-11.9 32.3-3.2 9-3.1-9-11.8-32.3h-13.7l23.2 57.4h10.9L391 25.5zm52.3 46h-20.6V59.9h19.7V48.4h-19.7V37h20.6V25.5H410v57.4h33.3V71.5zM512 82.9V25.5h-12.7v35.8l-19.7-35.8h-12.7v57.4h12.7V47.2l19.7 35.7H512z"/></g></svg>