<svg xmlns="http://www.w3.org/2000/svg" xmlns:xlink="http://www.w3.org/1999/xlink" viewBox="0 0 512 315"><defs><linearGradient id="a" x1="178.5" y1="184.98" x2="336.35" y2="184.98" gradientUnits="userSpaceOnUse"><stop offset="0" stop-color="#81cbe6"/><stop offset="1" stop-color="#00a4d9"/></linearGradient><linearGradient id="b" x1="355.65" y1="107.46" x2="510.73" y2="262.54" xlink:href="#a"/><linearGradient id="c" x1="0.82" y1="182.99" x2="159.08" y2="182.99" xlink:href="#a"/></defs><path fill="url(#a)" d="M188.4,269.6c-3.2-1.4-6.8-5.1-8.5-8.6s-1.4-6.7-1.4-75.3c0-48.9.3-73.1.8-75.1,1.1-4,6.4-9.6,9.9-10.6,1.9-.6,17.3-.8,45.2-.6l42.3.2-6.2,20c-3.4,11-6,20.2-5.7,20.4s15.1-7.9,33.1-17.9,33.2-18.2,33.9-17.9,1.9,2.1,2.8,4.1l1.8,3.7V258.6l-1.7,3.2a17.4,17.4,0,0,1-7.8,7.6c-2.2,1.1-9.2,1.3-69.4,1.2-50.6,0-67.5-.3-69.1-1Z"/><path fill="url(#b)" d="M363.5,269.2a16.9,16.9,0,0,1-5.2-3.9c-4.3-5.1-4.3-3.5-3.8-82.7l.5-73,2.1-3.2a18.7,18.7,0,0,1,5.4-5.1l3.3-2,67.1-.2,67.1-.2,3.5,1.9a16.6,16.6,0,0,1,5.8,5.7l2.4,3.8.2,73.4c.2,81.1.5,77-4.7,82.3s-1.2,4.7-74,4.7C370.3,270.6,366.4,270.6,363.5,269.2Z"/><path fill="url(#c)" d="M12.2,268.1a16.6,16.6,0,0,1-9.7-8.5C.8,256.2.8,255.9.8,183.3V110.5l1.9-4a15.8,15.8,0,0,1,9.7-8.7c1.9-.7,21.3-.9,68.3-.9h65.7l3.3,1.7a17.6,17.6,0,0,1,8.6,12.2c.5,2.6.8,29.8.8,73.3,0,77.3.2,74.5-5.2,79.8s-1.5,5.2-73.7,5.2c-47.4-.1-65.8-.3-68-1Z"/><g fill="#fff"><path d="M299.7,25c.3,0,19.8,33.1,20.1,33.1S367.7.1,367.7.1L380,10,332.7,69.4,370,81.7S265.3,139.6,264.8,140Zm-.9,3.4,1.3-2.9"/><path d="M242.9,202,229,167.9H217.7l-14.2,36.8c-7.8,20.3-14.1,37-14.1,37.1h5.5l5.5-.2,4-11.1h0l3.9-11h30.6l4.4,11.2,4.4,11.3h11.4l-1.1-2.9C257.3,237.5,250.6,220.8,242.9,202Zm-19.2,8.9c-6.5,0-11.9-.2-11.9-.5s2-5.8,4.5-12.2,4.9-13.7,5.6-16.2l1.2-4.4,6.3,16.7,6.2,16.6Z"/><path d="M412.6,233.3l-22.7-.3V208.2l20.3-.2,20.4-.2v-8.5H410.5c-11.1,0-20.3-.3-20.4-.6s-.2-5.4,0-11.2l.4-10.7h43.2v-9.3H379.4V242h55.9v-4.3h0v-4.2Z"/><path d="M70.6,169.3c-2.8-1.1-7-1.4-23.8-1.6l-20.4-.3V242H36.5V211.9l15.3-.3c14-.3,15.7-.5,19.3-2.1,8-3.6,12.2-10.5,12.3-20.3S79.1,172.6,70.6,169.3Zm-3.3,31.2c-2.2,1.3-4.4,1.5-16.8,1.8l-14.2.2.5-8.3h0c.3-4.6.5-10.4.5-12.9v-4.5h13c11.1,0,13.4.3,16.2,1.5C74.7,182,75.2,195.7,67.3,200.5Z"/></g><path fill="#58585a" d="M367.8,303.3c0-9.9.2-11.7,1.1-11.7s1.2.4,1.2.8.5.6,1.5,0a7.2,7.2,0,0,1,8.1,1c5.8,5.8.6,17.9-6.5,15.4l-2.3-.8v3.4c0,3-.3,3.5-1.6,3.5s-1.5-.5-1.5-11.6Zm9.6,1.8c.8-.7,1.2-2.5,1.2-4.7,0-5.8-3.5-8.3-6.6-4.8-1.8,1.9-2,7.6-.4,9.5s4.2,1.6,5.8,0ZM23.9,308.3c-2.5-1.4-3.1-4-2.8-11.2.2-4.1.5-5.1,1.6-5.3s1.4.4,1.5,5c.1,7.3.7,9.1,3.1,9.4s4.5-1.5,4.5-8.4.2-6.2,1.6-6.2,1.6.5,1.6,8.6-.1,8.5-1.6,8.5-1.6-.4-1.6-.8-.7-.3-1.7.4-3.4,1.4-6.2,0Zm45.4.1c-3.1-1.5-4.1-3.3-4.1-8.3,0-3.3.4-4.3,2.3-6.2a6.4,6.4,0,0,1,5.5-2.3,6.5,6.5,0,0,1,5.5,2.3c1.9,1.9,2.2,2.9,2.2,6.2s-.4,4.3-2.1,6.3a7.9,7.9,0,0,1-9.3,2Zm7.1-3.8A7.5,7.5,0,0,0,76,296c-3-3.9-7.7-1.5-7.7,4,0,3.9,1.8,6.4,4.7,6.4A4.2,4.2,0,0,0,76.4,304.6Zm10.9,4.3c-2.2-.6-4.2-2.6-4.2-4.2s2.4-1.9,3.7.1,4.9,2.1,6.3.4.5-2.5-4.2-3.8-7.5-5-4.3-8.2c1.1-1.1,2.6-1.6,5-1.6,4.8,0,8.7,3.7,5.4,5a2.1,2.1,0,0,1-2.4-1.1c-1.3-1.8-4.3-2-5.6-.4s-.5,2.5,3.8,3.5c5.9,1.4,7.9,5.1,4.4,8.4a9,9,0,0,1-7.9,1.9Zm25.5-.2c-5.1-2.1-6.7-10.2-2.9-14.7a6.3,6.3,0,0,1,8.1-1.6c1.4.8,1.5.5,1.5-3.1s.2-3.9,1.6-3.9,1.5.5,1.5,11.7v11.6h-2.5a12.7,12.7,0,0,0-4.1.4A6,6,0,0,1,112.8,308.7Zm5.3-3.6c3.1-2.8,1-11.2-2.9-11.2-2.1,0-4.2,3-4.2,6.1C111,305.4,114.8,308.1,118.1,305.1Zm12.6,3.6c-4.5-1.8-6.3-8.3-3.8-13.2,1.5-2.8,3.3-3.9,7-3.9s7.3,3.5,7.3,6.9v2.4H135c-6.1,0-6.3.1-5.8,1.8,1.1,3.7,5.3,4.8,7.8,2.1s4.2-2.2,4.2-1.1-2,3.7-4.3,4.7-3.9,1.3-6.2.3Zm7.4-10.9c0-1.3-3-3.9-4.5-3.9a4.2,4.2,0,0,0-2.6,1.4c-2.6,3.1-2.5,3.3,2.4,3.3C136.1,298.6,138.1,298.3,138.1,297.8Zm47.4,10.3c-7.6-3.8-5.1-16.5,3.2-16.5,4,0,7.6,3.4,7.6,6.9v2.4h-5.8c-5.2,0-5.8.2-5.8,1.5,0,3.7,5.1,5.3,7.5,2.4s4.1-2.1,4.1-.5-3.3,4.3-5.8,4.8A7.8,7.8,0,0,1,185.5,308.1Zm7.6-10.8a4.9,4.9,0,0,0-2.3-2.5c-1.8-1-2.3-1-4.1.2-3.5,2.3-2.6,3.6,2.3,3.6S193.3,298.4,193.1,297.3Zm28,11.2c-2.9-1.5-4.9-6.1-4.2-10s3.3-6.9,7.3-6.9a6.2,6.2,0,0,1,5.1,1.9,6.9,6.9,0,0,1,1.9,2.7c0,1.4-2.7.9-4.1-.7s-2.7-1.9-5-.3-1.7,1.9-1.7,4.9.4,4.3,1.2,5.1,5.2,1.2,6.1-1,3.5-2.3,3.5-.3c0,3.6-6.4,6.5-10.1,4.6Zm23.7.3c-3.3-1.5-4.6-3.9-4.6-8.8s.2-4.8,2.1-6.5c4.5-3.9,12.1-1.3,13.3,4.4.6,3.4-.8,8.2-2.9,9.6S246.8,309.6,244.8,308.8Zm6-3.7c2-1.8,1.9-7.5-.2-9.6s-4.2-1.9-6.2.6-1.6,2.8-1.3,5.2c.7,4.7,4.5,6.6,7.7,3.8Zm36.3,3.4a4,4,0,0,1-2.2-3.6c-.3-3.4,1.5-5.3,5.6-5.9s5.9-1.1,5.3-2.6-4.6-3.3-6.8-.9-4.2,2.1-4.2.7a6.9,6.9,0,0,1,1.9-2.7c1.5-1.5,2.7-1.9,5.6-1.9,6,0,6.7.9,7.2,9.6s.4,7.5-1.4,7.5-1.7-.3-1.7-.7-1.2-.3-2.7.3c-3.3,1.4-4.1,1.4-6.6.2Zm7.1-3.1a6,6,0,0,0,1.7-2.8c.4-1.7.2-1.8-2.9-1.3s-5.6,2.1-4.9,3.8,4.4,1.7,6.1.3Zm106.5,3.5c-4.4-1.1-6.7-6.5-5.1-11.9,1.1-3.7,3.4-5.4,7.3-5.4s7.5,3.4,7.5,6.9v2.4h-5.8c-5.2,0-5.8.2-5.8,1.5,0,3.7,5.1,5.3,7.6,2.4s4-2.1,4-.5-5.8,5.6-9.7,4.6Zm6.5-11.6a4.5,4.5,0,0,0-2.3-2.5c-1.8-1-2.2-1-4.1.2-3.4,2.3-2.6,3.6,2.3,3.6S407.4,298.4,407.2,297.3Zm28.5,11.4c-5.9-2.4-6.7-13.3-1.2-16.3,2-1.1,5.7-1,6.8.2s1,0,1-3.2.2-4,1.5-4,1.6.5,1.6,11.7v11.6h-2.2a18.4,18.4,0,0,0-4.1.3A5.6,5.6,0,0,1,435.7,308.7Zm5.3-3.6c1.8-1.8,1.6-7.7-.3-9.6s-3.4-2-5-.3-2.5,7.5-.3,10.2S439.6,306.6,441,305.1Zm13.3,3.8c-4.5-1.1-6.8-6.5-5.1-11.9,1.1-3.7,3.3-5.4,7.2-5.4s7.6,3.4,7.6,6.9v2.4h-5.8c-5.3,0-5.9.2-5.9,1.5,0,3.7,5.1,5.3,7.6,2.4s4.1-2.1,4.1-.5-5.9,5.6-9.7,4.6Zm6.4-11.6a4.2,4.2,0,0,0-2.3-2.5c-1.8-1-2.2-1-4,.2-3.5,2.3-2.7,3.6,2.3,3.6S460.9,298.4,460.7,297.3Zm10.6,11.4c-5.8-2.4-6.7-13.3-1.2-16.3,2.1-1.1,5.8-1,6.9.2s.9,0,.9-3.2.2-4,1.6-4,1.5.5,1.5,11.7v11.6h-2.1a18.4,18.4,0,0,0-4.1.3A5.9,5.9,0,0,1,471.3,308.7Zm5.4-3.6c.8-.7,1.2-2.6,1.2-5s-.3-4-1.9-5a4.4,4.4,0,0,0-3.4-.8c-3.1,1-4.1,8-1.5,11,1.1,1.4,4.1,1.3,5.6-.2Zm12.5,3.7c-5.9-2.6-6.7-13.4-1.2-16.4s11,.6,12,5.5-.8,8.2-2.9,9.6S491.1,309.6,489.2,308.8Zm5.9-3.7c2.2-2,2-8.3-.3-9.9s-4.1-1.5-5.9.8c-4.3,5.4,1.3,13.6,6.2,9.1ZM.2,297.2l.2-11.4H7.7c6.7,0,7.3.1,8.7,1.8s1.9,7.2,0,9.5-2.3,1.9-7,2.1l-5.5.4v4.5c0,4.4-.1,4.6-1.9,4.6H0Zm13.4-2.1a5,5,0,0,0,1.2-2.7c0-2.6-2.2-3.9-6.7-3.9H3.9v7.8H8.1C10.9,296.3,12.8,295.9,13.6,295.1Zm25.2,5.4c0-6.8.2-8.2,1.3-8.6a1.4,1.4,0,0,1,1.7.3c.4.6,1,.6,1.7.2s6.6-.9,8,.6,1.3,3,1.3,8.6-.1,7.1-1.6,7.1-1.5-.5-1.5-6.6-.2-6.6-1.6-7.4-2-.6-3.5.4-1.9,1.7-1.9,7.4,0,6.2-1.9,6.2h-2Zm19.6,7.3c-.6-.6-.9-3.3-.9-6.7s-.3-6-1.4-6.9-1.3-1.1,0-2.1a4.2,4.2,0,0,0,1.4-2.7A2.8,2.8,0,0,1,59,287c1.4-.8,1.6-.6,1.6,1.9s.2,2.7,1.5,2.7,1.6.5,1.6,1.3a2,2,0,0,1-1.6,1.6c-1.4.4-1.5,1.1-1.5,5.8s.1,5.5,1.5,5.8,1.6.9,1.6,1.5S59.7,309.1,58.4,307.8Zm91.4.4c0-.4,1.9-5.6,4.2-11.5,3.6-9.4,4.4-10.9,6-11.1s2.2.7,6.6,11.5l4.8,11.7-2.1-.3c-1.7-.2-2.3-.8-3.2-3.5l-1.2-3.3h-9.4l-1.2,3.3c-.8,2.3-1.7,3.4-2.9,3.5S149.8,308.5,149.8,308.2ZM163.4,298c-.2-.7-1.1-3-1.9-5.1l-1.4-3.7-1.7,4.6a42.4,42.4,0,0,0-1.6,5.1c0,.3,1.5.5,3.5.5S163.8,299.2,163.4,298Zm10.9,10.2a34.1,34.1,0,0,1-.5-7c0-5.2-.2-6.5-1.1-6.5a1.4,1.4,0,0,1-1.2-1.5c0-.9.5-1.6,1.2-1.6s1.1-.8,1.1-2.3a5.6,5.6,0,0,1,.3-2.3l1.6-.5c1-.4,1.2.1,1.2,2.3s.4,2.8,1.2,2.8a1.5,1.5,0,0,1,1.2,1.6,1.4,1.4,0,0,1-1.2,1.5c-1,0-1.2,1-1,5.6s.5,5.7,1.4,5.7a1.7,1.7,0,0,1,1.4,1.3c.2,1.1-.3,1.4-2.4,1.4A6.9,6.9,0,0,1,174.3,308.2Zm25.1-7.7c0-6.8.2-8.2,1.3-8.6a1.5,1.5,0,0,1,1.7.3c.4.6,1,.6,1.7.2s6.6-.9,8,.6,1.3,3,1.3,8.6-.1,7.1-1.6,7.1-1.5-.5-1.5-6.6-.2-6.6-1.6-7.4-2-.6-3.5.4-1.9,1.7-1.9,7.4,0,6.2-1.9,6.2h-2Zm34.2-.3c0-8.1.1-8.6,1.5-8.6s1.6.5,1.6,8.6-.1,8.5-1.6,8.5S233.6,308.2,233.6,300.2Zm24.8.3c0-6.8.2-8.2,1.2-8.6a1.6,1.6,0,0,1,1.8.3c.3.6.9.6,1.7.2s6.1-.9,7.7.8,1.5,2.6,1.5,8.5-.1,7-1.5,7-1.6-.5-1.6-6.6-.2-6.7-1.4-7.3c-3.9-2.1-6.3,1.5-6.3,9.3,0,4.1-.2,4.6-1.6,4.6s-1.5-.5-1.5-8.2Zm45-3.4c0-11.2.1-11.7,1.5-11.7s1.6.5,1.6,11.7-.1,11.6-1.6,11.6S303.4,308.2,303.4,297.1Zm16.3,0V285.4h8.5c8,0,8.5.1,8.5,1.6s-.5,1.5-7,1.5h-7l.2,3.3.3,3.3,6.4.2c5.6.2,6.4.4,6.2,1.6s-1.3,1.4-6.6,1.5l-6.4.3v6.8l7.1.2c6.1.2,7.3.5,7.5,1.6s-.6,1.4-8.7,1.4h-9Zm20.9,3.1c0-8.1.1-8.6,1.6-8.6s1.5.4,1.5.8.5.6,1.5,0,5.9-1,7.1.4,1.1,1.1,2.3,0,5.4-1.5,7.4-.1,1.5,2.3,1.8,8.6.2,7.4-1.4,7.4-1.6-.5-1.6-5.2c0-8.6-1.4-10.9-5.2-8.4-1.6,1.1-1.8,1.8-1.8,7.4s-.1,6.2-1.5,6.2-1.6-.5-1.6-6.6-.2-6.6-1.5-7.4a3.7,3.7,0,0,0-5,2,29.6,29.6,0,0,0-.5,6.6c0,4.9-.1,5.4-1.5,5.4s-1.6-.5-1.6-8.5Zm45,0c0-7.1.2-8.6,1.2-8.6a1,1,0,0,1,1.1,1c0,.7.3.7,1,0s4.6-1.3,5.5-.5-.5,2.6-2.1,2.6-3.6,1.5-3.6,7.9-.1,6.1-1.5,6.1S385.6,308.2,385.6,300.2Zm27.9.3c0-6.8.3-8.2,1.3-8.6a1.6,1.6,0,0,1,1.8.3c.3.6.9.6,1.6.2s5.7-.9,7.6.4,1.7,1.9,1.7,8.6-.1,7.3-1.5,7.3-1.6-.5-1.6-6.6-.2-6.7-1.4-7.3c-3.9-2.1-6.4,1.5-6.4,9.3,0,4.1-.1,4.6-1.5,4.6s-1.6-.5-1.6-8.2Zm89.3,0c0-6.8.2-8.2,1.2-8.6a1.4,1.4,0,0,1,1.8.5c.5.7.8.7,1.2.1s1.6-.9,2.8-.9,2.3.3,2.1,1.8-.7,1.7-1.8,1.5c-2.6-.4-3.7,1.8-4.1,8s-.5,5.8-1.8,5.8-1.4-.7-1.4-8.2ZM247.1,287.7c.9-1.6,1.8-2.3,3.2-2.3h1.9l-1.7,2.3c-.9,1.3-2.4,2.4-3.1,2.4S246,289.9,247.1,287.7Zm-13,1.1c-1.2-1.2-.5-3.4,1-3.4s1.6.5,1.6,2S235.3,290,234.1,288.8ZM84.6,63.9c0-20.3.1-20.7,5.3-26.2s8.2-5.2,20.8-5.2,17.4.9,21.4,4.5c7.2,6.5,8.1,16.4,2,23.7-3.5,4.3-7.5,5.9-15,5.9-5.6.1-6,.2-4.7,1.2s3.3,1.2,6.2,1.2c8.3,0,16.8,5.5,16.8,10.9v2.3H126.5c-13.9,0-17-.8-21.8-5.4-6.6-6.5-6.9-14.1-.6-18.7,4-2.9,7.2-3.9,14.1-4.5,3.7-.4,5.7-.9,6.2-1.8s0-5.1-2-5.6-20.5-.6-22.6.2-2,1-2,7.7c0,8.5-1.2,14.9-3.5,19.5s-5.3,7.3-8,8.1l-1.7.6Zm72.6,17.3c-4.4-1.2-10-7-11.2-11.6s-1.2-19.8,0-24.2a17.5,17.5,0,0,1,8.7-10.8c3-1.6,4.2-1.7,17.6-1.7s14.3,0,18,2.2a15.8,15.8,0,0,1,8.2,12.5c.5,6.2-.3,9.1-3.5,12.8-4.6,5.4-7.3,6.2-20.2,6.2H163.7v-2c0-3.2,5.7-8.4,10.9-9.9a29.1,29.1,0,0,1,6.6-1.3c3,0,4.3-1.2,4.3-4s-2.2-3.7-13.9-3.7c-13.6,0-13.3-.2-13.3,11.5,0,5,.4,9.6.8,10.2s3.4,1.3,14.9,1.6c13.3.3,14.4.5,17.6,2.3s7,6.2,7,9v1.9H179.4c-10.5-.1-20.5-.5-22.2-.9Zm61.9.2A18.2,18.2,0,0,1,209,74.3c-2.2-3.2-2.2-3.5-2.5-15.4-.3-14.1.3-16.5,4.7-20.9s8.5-5.5,22-5.5c6,0,11.2.2,11.4.4s-.9,5.2-2.7,7.2-7.5,5-13.8,5.4c-8.8.6-8.5.1-8.5,11.8,0,9.4.1,10.1,1.6,10.9s5.6.8,12.8.6c9-.2,11.4-.5,12-1.4s.7-9.4.7-19.8.4-19.9.8-21.4c1.6-5.5,5.8-10.1,10.3-11.2l2.1-.5V40.8c0,16.2-.3,27.4-.8,29.2-1.3,4.5-6.3,9.6-11,11s-24.3,1.5-29,.4ZM302.3,36c.2,0,15.9,26.7,16.2,26.7S357,15.9,357,15.9l10,8L328.9,71.7l30,10-84.8,47Zm-.8,2.7,1.1-2.3"/></svg>