<svg xmlns="http://www.w3.org/2000/svg" viewBox="0 0 1024 292"><path fill="#61a053" d="M19.8,225.2.2,224.7C28.8,184.4,152.5,9,160,.1c1.6.4,33.8,48,33.3,49.1C187.8,57.7,91,193.6,68.1,225.7c-15.2.1-31,0-48.3-.5Zm608.4-83.5V57.1h30.7V226.2H628.2Zm116.2,83.6c-78.8-13.1-95.6-122.8-24-159.3,25.7-14.1,64.4-10.6,85.4,7.7,2.5,2.1,4.8,3.9,5.2,3.9s.6-13.4.6-16.4h30.7V222.1H811.7l-.6-16.2c-17.6,15.7-43.7,22.5-66.7,19.4Zm28.7-30.4c55.3-13.9,51-98.1-4.8-107.1C682.5,77.8,689,212.9,773.1,194.9Zm153.8,30.2c-78.9-9.9-93.1-125.1-24-159.6,60.8-28.1,124.4,16,121.1,82.8H956.7c-76.4,0-68.5-1.1-65.7,9.6,14.7,54,82.8,48.1,103.7,1.8.2-.3,24.5,11.8,25.9,12.9C1007.4,208.3,967.7,232.2,926.9,225.1Zm61.4-106.7c-14.4-41.2-81.2-41.8-94.7,1.7,3.9.8,78.3.5,95.4.6Z"/><path fill="#114070" d="M604.1,195.5c-9.5-9.5-11-10.6-12.6-9.5s-5,2.9-8.9,4.9c-22.9,11.3-52.5,3.2-66.2-18-16.5-25.8-9.6-59.9,15.5-76.7,16.3-10.9,39.6-11.2,55.1-.8l5.1,3.5,11.1-11.2,11.1-11.2-3.6-3c-5.1-4.3-17.7-10.7-26.6-13.4-6.7-2.1-9.8-2.4-23.6-2.4-18.7,0-24.3,1.2-38.9,8.3-8.5,4.2-11.1,6.2-20,15.1L491.3,91.5l-9.7-9.8C463,63.1,445.5,56.3,418.1,57.4c-10.9.4-14.3.9-22.6,3.7-15.7,5.3-27.4,13.6-38.1,26.8a89.2,89.2,0,0,0-18.8,45.3l-.7,5.8-3.2-2.4c-1.8-1.3-8.6-5.4-15.3-9.1s-14.1-8.2-16.6-9.9c-9.8-6.8-13.2-15.6-8.5-22.5s15.9-10,26.2-4.8l5.4,2.7,8.7-11c4.7-6.1,8.7-11.5,8.9-12s-10.1-7.4-17.6-10c-9.1-3.1-24.5-3.1-33.1,0a45.2,45.2,0,0,0-29.4,50c2.8,18,12.4,28.5,38.9,42.9,20,10.8,24.6,15.4,24.6,24.7,0,6.4-2.6,10.7-9.1,15.3-4,2.8-5.1,3.1-12.8,3.1s-9.3-.5-14.2-2.9a54.7,54.7,0,0,1-10.7-7.3c-2.7-2.4-14.2-16.9-25.5-32.2l-20.5-27.8H181.9l-11.6,15.4-11.5,15.3h48.7l18.4,23.5c19.2,24.7,23.7,29.6,32.6,35.2s15.9,8.1,30.5,10.3h0c7,1,25.6.5,31-.9,13.5-3.5,25.6-12.9,31.6-24.5l3.3-6.4,8.3,8.3c17.4,17.6,38,25.2,64.4,23.8,14.1-.8,20.9-2.5,33.5-8.6,8.6-4.1,11-5.9,20.1-15.1l10.4-10.5,4.5,5.5c9.7,11.9,24.7,21.6,40.4,26.1,11.8,3.4,35.2,3.4,47,0,9.5-2.7,22.3-9.1,27.7-13.8l3.7-3.3ZM474.9,146.3c-2.6,23.4-16,40.9-35.8,47-7.9,2.5-18.8,3.4-25.8,2.1-29.9-5.3-48.7-34.6-42.2-65.7,3.1-15,15.5-30.4,30-37.3,7.1-3.4,9.1-3.9,18.2-4.3,17-.8,28.3,3.7,40.5,16.2C470.2,114.9,476.5,132.5,474.9,146.3Z"/><g fill="#7c7d7d"><path d="M16,261.3c-2.9-3.2-15.2,29-16,30.2H0c4.5,1.8,6.5-3,8.2-6.9H24.4c1,2.6,1.8,7.8,5,7.2s3.4,1.4-4.6-17.2C19.1,261.4,18.9,261,16,261.3Zm-.1,19.2c-3.1,0-5.6-.3-5.6-.7s4.5-10.4,5.7-13.1c1.2,2.7,5.4,11.6,5.5,12.9S19,280.5,15.9,280.5Z"/><path d="M50.8,273.9c-13-2.9-7.1-11.6,2.5-8.3s7.8-4.5-1.6-5.1-15.6,4.9-12.8,11.8c.6,4.6,17.7,7.5,16.3,10.7.9,4.6-6,6.2-11.8,2.7-3.1-1.9-3.3-1.9-4.9-.1s-1.8,2.1,3.3,4.7h0c6,2.9,19.8,2.1,18.7-6.8C60.5,278.4,58.1,276,50.8,273.9Z"/><path d="M92.2,262.4c-19.1-10.4-34.1,18-14.8,28.4C96.5,297.8,110.1,273.2,92.2,262.4Zm-.4,21.8c-7.9,9.2-23.3-1.8-17.4-12.5C82.9,255,104.1,271.8,91.8,284.2Z"/><path d="M118,266.8c8.5-5,14.2,2.7,16.8.4s1.8-3-2.9-5.1c-19-9.4-32.9,17.6-15.8,28h0c4.7,2.4,12.8,2.2,17-.4s3.4-2.2,1.6-4.1-2-1.9-3.6-.4a13,13,0,0,1-5.8,2.2C114.4,288.5,108.9,273.4,118,266.8Z"/><path d="M145.5,261.1v30.7h5.1V261.1Z"/><path d="M173.8,261.6c-2.8,0-3.3.7-9.5,14.7-3.6,8.1-6.5,14.9-6.5,15.1s1.1.4,2.4.4,4.6-4.8,5.8-7.2h16c1.3,4.1,2.9,9.5,7.5,6.4C188.7,289.4,177.1,258.3,173.8,261.6Zm-.1,18.9c-3.1,0-5.6-.3-5.6-.7s4.5-10.5,5.7-13.1c1.2,2.7,5.4,11.6,5.5,12.9S176.8,280.5,173.7,280.5Z"/><path d="M218.1,266.8c1.8,1.3,2.6,1.4,3.8.4,6.1-5-13.6-9.1-17.6-5.2-11.5,4.4-11.6,24.7.6,29,2.5,2.1,21.6-.2,17.1-5.1-1.6-1.6-1.9-1.6-4.7,0-6.4,4.9-16.9-1.4-16.6-9.1C199.3,267.3,210.9,262.5,218.1,266.8Z"/><path d="M232.6,261.1v30.7h5.1V261.1Z"/><path d="M258,261c-12.5,4.1-14.8,21.2-4,28.5h0C283.3,303.4,290,255.1,258,261Zm11.7,24.7c-6.4,5.2-17.7-.4-17.6-8.7C253.7,252.4,286.6,270,269.7,285.7Z"/><path d="M312.5,261.1v11.3c0,7-.3,11.1-.9,10.7s-18.9-24.7-20.1-22H289v30.7h5.1V269c3.9,4.8,18.1,25,20.6,22.8h3V261.1Z"/><path d="M351.2,261.1h-7.9v30.7H351c13,0,18.9-4.1,19.7-13.7C371.7,266.4,365.5,261.1,351.2,261.1Zm8.9,25.1c-3.2,1.5-8.1,1.6-11.7,1.5V265.2c5.4-.6,14.5,1,16.3,4.9S366.4,284.7,360.1,286.2Z"/><path d="M385.3,265.2c3.3-.4,19.4,1.1,17.4-2.1,2.6-3.2-18.6-1.7-22.5-2v30.7c3.9-.3,25.1,1.2,22.5-2.1,2-3.2-14.1-1.7-17.4-2v-9.2c3.1-.3,17.1,1.1,15.4-2.1,1.7-3.1-12.3-1.7-15.4-2Z"/><path d="M439,261.3c-2.9-.3-3.2.1-8.8,13.3-2.8,8.2-9.9,18-4.6,17.2,3.2.6,4-4.6,4.9-7.2h16.3c1.7,3.9,3.7,8.8,8.2,6.9C454,290.1,442.1,258.1,439,261.3Zm.1,19.2c-3.1,0-5.6-.4-5.6-.9s4.2-10.2,5.4-12.9c1.3,2.7,5.6,11.9,5.7,13.1S442.2,280.5,439.1,280.5Z"/><path d="M475,274.3c-4.3-.8-11.6-4.6-7.6-8.7,1.7-1,8.7-.7,11,.5s2.3.8,3.2-.8.5-2.2-3.6-3.8c-15.3-6.3-25.1,12.7-7.2,16.8,14.5,3.6,5.6,12.7-4.1,7.8-3.3-1.6-3.8-1.6-5.3-.2s-1.3,1.8,1.9,3.8C479,298.7,494.1,280.6,475,274.3Z"/><path d="M506.7,287.7H498v-9.2c3-.3,15.9,1.1,14.4-2.1,1.6-3.1-11.5-1.7-14.4-2v-9.2c3.2-.4,18.3,1.1,16.4-2.1,2.5-3.2-17.7-1.7-21.5-2v30.7h11.3c10.5,0,11.2-.1,11.2-2.1S514.7,287.7,506.7,287.7Z"/><path d="M535.8,273.9c-11.4-2.2-7.8-12.2,2.4-8.3,3.8,1.4,4.4,1.3,5.5-.2s.9-2-2.4-3.5c-15.3-8.2-26.1,12.1-9.2,16.1s7.5,14-4.1,7.7c-3.3-2-3.3-2-4.4.1s-1.5,2.1,2.6,4.3h0c4.2,1.8,13.8,3.2,17-1.3C549,283,546.2,277.2,535.8,273.9Z"/><path d="M569.3,260c-26.4,2.9-16.9,40.8,8.2,30.2C591.8,282.4,585.7,260.7,569.3,260Zm6.8,25.7c-13.8,9.1-25.6-13.7-10.7-20.2C576.9,260.4,586.8,278.1,576.1,285.7Z"/><path d="M613.6,281.5c4-3.3,7.3-7.1,5.9-12.7.2-9-15.6-7.4-24.1-7.9v30.9h2.5c3.9,1.2,2.2-7.3,2.6-10.2,13.1-1.8,8.3,11.6,20.5,10.2Zm-7.4-4.3-5.7.5V265.2c8.1-.8,18.4,1.4,12.9,10.1h0C612.6,276,609.3,276.8,606.2,277.2Z"/><path d="M644,287.7h-8.7v-9.2c3-.3,16,1.1,14.4-2.1,1.6-3.1-11.4-1.7-14.4-2v-9.2c3.2-.4,18.3,1.1,16.4-2.1,2.5-3.2-17.7-1.7-21.5-2v30.7h11.3c10.6,0,11.2-.1,11.2-2.1S652.1,287.7,644,287.7Z"/><path d="M672.6,273.8c-10.6-2.1-8.4-11.8,2.9-8.2,6.6,2.9,8.2-2.7,1-4.4s-15.6.8-15.6,7.7c-1.9,9.3,16.3,8.8,17.5,14.7,0,1.9-3.4,4.1-6.5,4.1s-8.7-4.6-10.8-2.8c-4.3,4.8,6.6,6.9,10.8,6.9C685.7,292.2,687.4,276.3,672.6,273.8Z"/><path d="M712.2,265.2c3.2-.4,18.2,1.1,16.4-2.1,2.5-3.2-17.8-1.7-21.5-2v30.7c3.8-.3,24,1.2,21.5-2.1,1.8-3.1-13.2-1.7-16.4-2v-9.2c2.9-.3,15.9,1.1,14.3-2.1,1.6-3.1-11.4-1.7-14.3-2Z"/><path d="M762.4,261.1c-8.1-1.5-9,6.1-13.3,10.2-4.4-4.1-5.2-11.7-13.4-10.2,2,3,9.1,13.2,9.3,14.8s-9.3,14.7-9.3,15.4,1.3.5,2.9.5c2.6,1.8,9.1-10.5,10.5-11.3,1.3.8,7.8,13.1,10.5,11.3,1.5,0,2.8-.2,2.8-.5s-9.6-14.6-9.2-15.4S760.4,264,762.4,261.1Z"/><path d="M778.9,266.8c9.7-5.4,14.7,3.8,17.1,0,1.6-1.7,1.6-1.9-.3-3.3-18.8-12.5-37.1,13.1-19.4,26.3h0c4.2,2.8,12.9,2.7,17.5-.2s3.5-2.2,1.8-4.1-1.9-1.8-3.6-.3a13,13,0,0,1-5.8,2.2C775.3,288.5,769.8,273.4,778.9,266.8Z"/><path d="M811.6,265.2c3.2-.4,18.2,1.1,16.4-2.1,2.5-3.2-17.8-1.7-21.5-2v30.7c3.8-.3,24,1.2,21.5-2.1,1.8-3.1-13.2-1.7-16.4-2v-9.2c2.9-.3,15.9,1.1,14.3-2.1,1.6-3.1-11.4-1.7-14.3-2Z"/><path d="M849.7,287.5l-6.9-.3c-.4-4.5.6-28.9-2.6-26.1-1.9,0-2,.7-2,15.3v15.4c3.4-.3,20.5,1.1,18.5-2C856.7,288,855.8,287.8,849.7,287.5Z"/><path d="M870.5,265.7c3.2-.4,18.7.4,16.9-2.6,2.4-3.2-17.7-1.7-21.5-2v30.7c3.8-.3,23.9,1.2,21.5-2,1.8-3-13.7-2.2-16.9-2.6-.2-2.2-.5-6.6-.6-8.7,3-.3,17.2,1.1,15.5-2.1,1.7-3.1-12.5-1.7-15.5-2C870,272.2,870.3,267.8,870.5,265.7Z"/><path d="M923.3,261.1c-2,0-2.1.6-2.1,11.2,0,6.2-.3,11.3-.7,11.3s-19.2-25.3-20.4-22.5h-2.4v15.3c0,14.6.1,15.4,2,15.4s2-.8,2.3-11.5l.3-11.5c3.9,4.8,17.6,23.9,20.2,22.8l2.8.3V276.5C925.3,261.7,925.2,261.1,923.3,261.1Z"/><path d="M946.3,261.1c-11.1,0-11.8.1-11.8,2s7,1.8,9.3,2.1v26.6h5.1V265.2c2.3-.3,10.1.9,9.2-2.1S957.4,261.1,946.3,261.1Z"/><path d="M980.1,287.7h-8.7v-9.2c3.1-.3,17.1,1.1,15.4-2.1,1.7-3.1-12.3-1.7-15.4-2v-9.2c3.2-.4,18.3,1.1,16.4-2.1,2.5-3.2-17.7-1.7-21.5-2v30.7h11.3c10.6,0,11.3-.1,11.3-2.1S988.2,287.7,980.1,287.7Z"/><path d="M1009.2,273.8c-11.4-2.4-7.7-12,2.5-8.1,3.9,1.3,4.4,1.3,5.6-.3s.9-2-2.5-3.6c-15.2-7.3-26.5,11.8-8.7,16.3,6.8,1.9,8.4,3,8.4,5.6,0,4.1-7.6,5.3-13.1,2-3.3-2-3.3-2-4.4,0s-.5,2.3,2.3,4C1013.4,298,1031.5,281.3,1009.2,273.8Z"/><path d="M266.3,256c2.5-1.8,2.5-1.9.4-3C262.9,250.1,256,262.7,266.3,256Z"/></g></svg>