<svg xmlns="http://www.w3.org/2000/svg" xmlns:xlink="http://www.w3.org/1999/xlink" viewBox="0 0 512 512"><defs><clipPath id="A"><path fill="none" d="M0 0h512v512H0z"/></clipPath><path id="B" d="M194.2,355.2a2.5,2.5,0,0,1-2.2,1.3,2.9,2.9,0,0,1,0-5.7,2.4,2.4,0,0,1,2.2,1.4h2.3a4.8,4.8,0,0,0-9.3,1.5,4.7,4.7,0,0,0,4.8,4.7,4.7,4.7,0,0,0,4.5-3.2Z"/></defs><g clip-path="url(#A)"><path d="M493,257.4l-237,237L17.5,256,256,17.5,494.5,256Z" fill="#fff"/><g fill="#edead6"><path d="M493 257.4l-237 237L17.5 256 256 17.5 494.5 256zM0 256l256 256 256-256L256 0zM240.903 75.397l15.061-15.061 15.061 15.061-15.061 15.061zm-.022 361.277l15.061-15.061 15.061 15.061-15.061 15.061z"/></g></g><path d="M289.5,291.9l-15.4-35.8h25.1l15.4,35.8Zm-30.2-45.6h-44l22-51.1Zm-16.7-63.5,12.7-29.3L295,246.3H269.9Zm82.6,109.1L260.4,140.8a5.6,5.6,0,0,0-5.1-3.3,5.7,5.7,0,0,0-5.4,3.3L185.1,291.9H165.7a4.9,4.9,0,0,0,0,9.7h45.6a4.9,4.9,0,1,0,0-9.7H195.7l15.4-35.8h52.4l15.3,35.8H263.7a4.9,4.9,0,1,0,0,9.7h81.7a4.9,4.9,0,1,0,0-9.7Z" fill="#edead6"/><g fill="#4e5b60"><path d="M142.1 268.4L127 231.2h-6.9L105 268.4h8.8l2.7-7.5h14.1l2.7 7.5zm-13.9-14.2h-9.4l4.7-13.3zm40.6 8.4c-4 0-7.5-2-7.7-6.5h-8.3c0 9.1 7.5 13.2 15.7 13.2s15.4-3.3 15.4-12c0-14.2-21.5-9.4-21.5-16 0-2.8 3.3-3.9 5.6-3.9 4.1 0 6.3 1.2 6.7 5.1h8c-.3-8.5-7.2-11.9-14.8-11.9s-13.9 3.7-13.9 11.3c0 13.7 21.5 9.1 21.5 16.3 0 3.3-4.1 4.4-6.7 4.4zm50.3-1.7h-13.3v-7.5h12.8V246h-12.8v-7.4h13.3v-7.4h-21.5v37.2h21.5v-7.5zm31.1-22.3h10.7v-7.4h-29.5v7.4H242v29.8h8.2v-29.8zm23-7.4h8.2v37.18h-8.2zm57.6 0h-8.9l-7.7 20.9-2 5.8-2-5.8-7.7-20.9h-8.8l15 37.2h7l15.1-37.2zm33.8 29.7h-13.3v-7.5h12.8V246h-12.8v-7.4h13.3v-7.4h-21.5v37.2h21.5v-7.5zm44.5 7.5v-37.2h-8.2v23.2l-12.8-23.2h-8.2v37.2h8.2v-23.2l12.8 23.2h8.2zm-253.8 72.1l-3.7-9.3h-1.8l-3.7 9.3h2.2l.6-1.9h3.6l.6 1.9zm-3.4-3.6h-2.4l1.2-3.3zm13.9 2.1a1.8 1.8 0 0 1-2-1.6h-2c0 2.3 1.8 3.3 3.9 3.3s3.8-.8 3.8-3-5.3-2.3-5.3-4 .8-.9 1.3-.9 1.6.3 1.7 1.2h2c-.1-2.1-1.8-2.9-3.7-2.9s-3.4.9-3.4 2.8c0 3.4 5.3 2.2 5.3 4s-1 1.1-1.6 1.1zm16.2-.4h-3.3v-1.8h3.2v-1.9h-3.2v-1.8h3.3v-1.9h-5.3v9.3h5.3v-1.9zm11.2.4a1.7 1.7 0 0 1-1.9-1.6h-2.1c.1 2.3 1.9 3.3 4 3.3s3.8-.8 3.8-3-5.4-2.3-5.4-4 .8-.9 1.4-.9 1.6.3 1.7 1.2h2c-.1-2.1-1.8-2.9-3.7-2.9s-3.5.9-3.5 2.8c0 3.4 5.4 2.2 5.4 4s-1 1.1-1.7 1.1zm20.1-3.2a4.8 4.8 0 1 0-4.7 4.8 4.8 4.8 0 0 0 4.7-4.8zm-2 0a2.7 2.7 0 1 1-2.7-2.7 2.8 2.8 0 0 1 2.7 2.7zm12.4-3a1.4 1.4 0 0 1 0 2.8h-1.1v-2.8zm-1.1 4.4h.1l2.2 3.3h2.5l-2.6-3.4a3 3 0 0 0-.7-5.9h-3.5v9.3h2zm13.5 3.3v-9.3h-2v9.3zm1.6-12.7H236l-1.6 2.5h1.5zm14.5 12.7l-3.8-9.3h-1.7l-3.7 9.3h2.1l.7-1.9h3.5l.7 1.9zm-3.5-3.6h-2.3l1.2-3.3zm20.5 1.7a1.4 1.4 0 0 1-1.3-.6h0v2.4l1.3.2c2.2 0 3.5-1 3.5-3.6v-5.8h-2v5.6c0 1-.1 1.8-1.5 1.8zm16.4-7.4v5.4c0 1.2-.4 2-1.8 2s-1.8-.8-1.8-2v-5.4h-2v5.7c0 2.4 1.4 3.7 3.8 3.7s3.8-1.3 3.8-3.7v-5.7zm12.5 1.6a1.4 1.4 0 0 1 0 2.8H297v-2.8zm-1.1 4.4h.1l2.2 3.3h2.5l-2.6-3.4a3 3 0 0 0-.7-5.9H295v9.3h2zm13.5 3.3v-9.3h-2v9.3zm1.6-12.7h-1.7l-1.6 2.5h1.5zm6 3.4v9.3h2.7a4.65 4.65 0 1 0 0-9.3zm2 7.4v-5.5h.6a2.8 2.8 0 0 1 0 5.5zm12.6-7.4h2v9.23h-2zm16.3 6.1a2.6 2.6 0 0 1-2.2 1.4 2.9 2.9 0 0 1 0-5.7 2.5 2.5 0 0 1 2.2 1.3h2.3a4.8 4.8 0 1 0 0 3zm18.6-1.5a4.8 4.8 0 1 0-4.8 4.8 4.8 4.8 0 0 0 4.8-4.8zm-2.1 0a2.7 2.7 0 1 1-2.7-2.7 2.8 2.8 0 0 1 2.7 2.7zm11.4 2.8h-2l-.8 3.7h1.1l1.7-3.7zm-221.1 16v-1.9h-3.2v-1.8h3.3v-1.8h-5.3v9.2h2v-3.7h3.2zm7.6-5.5h2v9.23h-2zm13.2 7.7c-1 0-1.9-.5-1.9-1.6h-2.1c0 2.3 1.9 3.3 3.9 3.3s3.9-.8 3.9-3-5.4-2.3-5.4-3.9.8-1 1.4-1 1.6.3 1.7 1.3h1.9c0-2.1-1.7-3-3.6-3s-3.5.9-3.5 2.8c0 3.4 5.4 2.3 5.4 4.1s-1.1 1-1.7 1z"/><use xlink:href="#B"/><path d="M212.1 358.3l-3.8-9.2h-1.7l-3.7 9.2h2.2l.6-1.9h3.5l.7 1.9zm-3.5-3.5h-2.3l1.2-3.3zm10.3 3.5h5.4v-1.9H221v-7.3h-2.1v9.2zm24.7 0h2.1v-4.4l3.4-4.8h-2.5l-2 3.1-1.9-3.1h-2.5l3.4 4.8v4.4z"/><use xlink:href="#B" x="77.8"/><path d="M290.6 353.7a4.8 4.8 0 1 0-4.8 4.7 4.9 4.9 0 0 0 4.8-4.7zm-2.1 0a2.7 2.7 0 1 1-2.7-2.8 2.8 2.8 0 0 1 2.7 2.8zm16.6 4.6v-9.2H303v5.7l-3.1-5.7h-2.1v9.2h2.1v-5.8l3.1 5.8h2.1zm11.5-7.4h2.6v-1.8h-7.3v1.8h2.7v7.4h2v-7.4zm18 7.4l-3.8-9.2h-1.7l-3.7 9.2h2.1l.7-1.9h3.5l.7 1.9zm-3.5-3.5h-2.3l1.2-3.3zm16.9.8a2.5 2.5 0 0 0-1.9-2.3 1.9 1.9 0 0 0 1.1-1.9 2.3 2.3 0 0 0-2.6-2.3h-3.2v9.2h3.8a2.6 2.6 0 0 0 2.8-2.7zm-2.8-3.9a1 1 0 0 1-1 1.1h-.7v-2.1h.7a.9.9 0 0 1 1 1zm.7 3.9a1.1 1.1 0 0 1-1.1 1.1h-1.3v-2.2h1.3a1.1 1.1 0 0 1 1.1 1.1zm9 2.7h5.3v-1.9h-3.3v-7.3h-2v9.2zm17.9-1.9h-3.3v-1.8h3.2v-1.9h-3.2v-1.8h3.3v-1.8h-5.3v9.2h5.3v-1.9z"/></g></svg>